<?xml version="1.0" encoding="utf-8"?>
<!-- Generator: Adobe Illustrator 24.3.0, SVG Export Plug-In . SVG Version: 6.00 Build 0)  -->
<svg version="1.1" id="Calque_1" xmlns="http://www.w3.org/2000/svg" xmlns:xlink="http://www.w3.org/1999/xlink" x="0px" y="0px"
	 viewBox="0 0 16.6 27" style="enable-background:new 0 0 16.6 27;" xml:space="preserve">
<style type="text/css">
	.st0{fill:#968E74;}
</style>
<g>
	<path class="st0" d="M15,7.3H1.6C0.8,7.3,0.1,8,0.1,8.9v9.3c0,0.9,0.7,1.5,1.5,1.5H15c0.9,0,1.5-0.7,1.5-1.5V8.9
		C16.6,8,15.9,7.3,15,7.3L15,7.3z M15,8.4c0.1,0,0.1,0,0.2,0l-6.9,6l-6.9-6c0.1,0,0.1,0,0.2,0H15z M15,18.7H1.6
		c-0.3,0-0.5-0.2-0.5-0.5V9.5l6.9,6c0.1,0.1,0.2,0.1,0.3,0.1c0.1,0,0.2,0,0.3-0.1l6.9-6v8.7C15.5,18.5,15.3,18.7,15,18.7L15,18.7z
		 M15,18.7"/>
</g>
</svg>
