<?xml version="1.0" encoding="utf-8"?>
<!-- Generator: Adobe Illustrator 24.3.0, SVG Export Plug-In . SVG Version: 6.00 Build 0)  -->
<svg version="1.1" id="Calque_1" xmlns="http://www.w3.org/2000/svg" xmlns:xlink="http://www.w3.org/1999/xlink" x="0px" y="0px"
	 viewBox="0 0 16.6 27" style="enable-background:new 0 0 16.6 27;" xml:space="preserve">
<style type="text/css">
	.st0{fill:#968E74;}
</style>
<g>
	<path class="st0" d="M16.6,12.6c0-0.9-0.7-1.6-1.5-1.6h-1v-0.2c0-0.5-0.4-0.9-0.9-0.9h-0.5V6.4c0-0.4-0.3-0.8-0.8-0.8H4.7
		C4.3,5.7,3.9,6,3.9,6.4v3.5H3.5c-0.5,0-0.9,0.4-0.9,0.9v0.2h-1c-0.8,0-1.5,0.7-1.5,1.6v4.9h3.9v3.1c0,0.4,0.4,0.8,0.8,0.8h7.1
		c0.4,0,0.8-0.4,0.8-0.8v-3.1h3.9V12.6z M4.7,6.4L12,6.4v3.4H4.7L4.7,6.4z M12,20.6C12,20.6,11.9,20.7,12,20.6l-7.2,0.1
		c0,0-0.1,0-0.1-0.1v-6H12V20.6z M15.9,16.7h-1.5c0.7-0.1,1.2-0.7,1.2-1.4c0-0.8-0.6-1.4-1.4-1.4s-1.4,0.6-1.4,1.4
		c0,0.7,0.5,1.2,1.2,1.4h-1.2v-2.8H3.9v2.8H0.8v-4.2c0-0.5,0.3-0.9,0.8-0.9h1.8v-0.9c0-0.1,0.1-0.1,0.2-0.1h9.6
		c0.1,0,0.2,0.1,0.2,0.1v0.9h1.8c0.4,0,0.8,0.4,0.8,0.9V16.7z M14.1,16.1c-0.4,0-0.7-0.3-0.7-0.7s0.3-0.7,0.7-0.7
		c0.4,0,0.7,0.3,0.7,0.7S14.5,16.1,14.1,16.1z"/>
	<rect x="5.5" y="15.3" class="st0" width="5.6" height="0.7"/>
	<rect x="5.5" y="16.6" class="st0" width="5.6" height="0.7"/>
	<rect x="5.5" y="17.9" class="st0" width="5.6" height="0.7"/>
	<rect x="5.5" y="19.2" class="st0" width="5.6" height="0.7"/>
	<circle class="st0" cx="14.1" cy="12.6" r="0.7"/>
	<path class="st0" d="M3.9,12.7h4.8v-1.8H3.9V12.7z M4.7,11.6H8V12H4.7V11.6z"/>
</g>
</svg>
