<?xml version="1.0" encoding="utf-8"?>
<!-- Generator: Adobe Illustrator 24.3.0, SVG Export Plug-In . SVG Version: 6.00 Build 0)  -->
<svg version="1.1" id="Calque_1" xmlns="http://www.w3.org/2000/svg" xmlns:xlink="http://www.w3.org/1999/xlink" x="0px" y="0px"
	 viewBox="0 0 16.6 27" style="enable-background:new 0 0 16.6 27;" xml:space="preserve">
<style type="text/css">
	.st0{fill:#968E74;}
</style>
<path class="st0" d="M15.2,16.1c-1,0-2-0.2-2.9-0.5c-0.5-0.2-1,0-1.3,0.3l-1.8,1.4c-2.1-1.1-3.4-2.5-4.6-4.6l1.3-1.8
	c0.3-0.3,0.5-0.9,0.3-1.3C5.9,8.6,5.8,7.7,5.8,6.7c0-0.7-0.6-1.3-1.3-1.3h-3c-0.7,0-1.3,0.6-1.3,1.3c0,8.3,6.7,15,15,15
	c0.7,0,1.3-0.6,1.3-1.3v-3C16.5,16.7,15.9,16.1,15.2,16.1z M15.6,20.4c0,0.2-0.2,0.4-0.4,0.4C7.4,20.8,1,14.5,1,6.7
	c0-0.2,0.2-0.4,0.4-0.4h3c0.2,0,0.4,0.2,0.4,0.4c0,1.1,0.2,2.2,0.5,3.2c0,0.2,0,0.3-0.1,0.5l-1.6,2.1c-0.1,0.1-0.1,0.3,0,0.5
	c1.3,2.5,2.8,4.1,5.3,5.3c0.2,0.1,0.3,0.1,0.5,0l2.1-1.6c0.1-0.1,0.3-0.1,0.4-0.1c1,0.3,2.1,0.5,3.2,0.5c0.2,0,0.4,0.2,0.4,0.4V20.4
	z"/>
</svg>
