<?xml version="1.0" encoding="utf-8"?>
<!-- Generator: Adobe Illustrator 24.3.0, SVG Export Plug-In . SVG Version: 6.00 Build 0)  -->
<svg version="1.1" id="Calque_1" xmlns="http://www.w3.org/2000/svg" xmlns:xlink="http://www.w3.org/1999/xlink" x="0px" y="0px"
	 viewBox="0 0 16.6 27" style="enable-background:new 0 0 16.6 27;" xml:space="preserve">
<style type="text/css">
	.st0{fill:#968E74;}
</style>
<g>
	<g>
		<path class="st0" d="M8.3,25L8,24.7c-0.3-0.3-8-7.5-8-15.9c0-4.6,3.7-8.3,8.3-8.3h0c4.6,0,8.3,3.7,8.3,8.3c0,8.5-7.6,15.6-8,15.9
			L8.3,25z M8.3,1.4C4.3,1.4,1,4.7,1,8.7c0,7.1,5.9,13.4,7.3,14.9c1.5-1.5,7.3-7.8,7.3-14.9C15.6,4.7,12.3,1.4,8.3,1.4L8.3,1.4z"/>
	</g>
	<g>
		<path class="st0" d="M8.3,13.8c-3.2,0-5.8-2.6-5.8-5.8c0-3.2,2.6-5.8,5.8-5.8c3.2,0,5.8,2.6,5.8,5.8C14.1,11.3,11.5,13.8,8.3,13.8
			z M8.3,3.2c-2.7,0-4.8,2.2-4.8,4.8s2.2,4.8,4.8,4.8s4.8-2.2,4.8-4.8S11,3.2,8.3,3.2z"/>
	</g>
	<g>
		<path class="st0" d="M8.3,27.1c-3.6,0-7.5-0.9-7.5-2.7c0-1.1,1.5-2,4.1-2.5l0.2,1c-2.4,0.4-3.3,1.1-3.3,1.5c0,0.7,2.5,1.8,6.5,1.8
			c4.3,0,6.5-1.1,6.5-1.8c0-0.4-0.9-1.1-3.4-1.5l0.2-1c2.7,0.4,4.2,1.3,4.2,2.5C15.8,26.1,12,27.1,8.3,27.1z"/>
	</g>
</g>
</svg>
