<svg id="Calque_1" data-name="Calque 1" xmlns="http://www.w3.org/2000/svg" viewBox="0 0 10.37 10.37"><defs><style>.cls-1{fill:#a79f88;}.cls-2{fill:#fff;}</style></defs><title>ign</title><circle class="cls-1" cx="5.19" cy="5.19" r="5.19"/><path class="cls-2" d="M6.8,3.23a.36.36,0,0,0-.36.36.36.36,0,0,0,.71,0A.36.36,0,0,0,6.8,3.23Z" transform="translate(0 0)"/><path class="cls-2" d="M5.21,3.69a1.5,1.5,0,1,0,1.5,1.5A1.5,1.5,0,0,0,5.21,3.69Zm0,2.46a1,1,0,1,1,1-1A1,1,0,0,1,5.21,6.15Z" transform="translate(0 0)"/><path class="cls-2" d="M6.4,8.23H4A1.83,1.83,0,0,1,2.15,6.4V4A1.83,1.83,0,0,1,4,2.15H6.4A1.83,1.83,0,0,1,8.23,4V6.4A1.83,1.83,0,0,1,6.4,8.23ZM4,2.72A1.25,1.25,0,0,0,2.72,4V6.4A1.26,1.26,0,0,0,4,7.66H6.4A1.26,1.26,0,0,0,7.65,6.4V4A1.25,1.25,0,0,0,6.4,2.72Z" transform="translate(0 0)"/></svg>