<svg id="Calque_1" data-name="Calque 1" xmlns="http://www.w3.org/2000/svg" viewBox="0 0 572.64 572.64"><defs><style>.cls-1{fill:#1d1d1b;}</style></defs><title>motif</title><path class="cls-1" d="M297.64,134.62C139.76,134.62,11.32,263.07,11.32,421S139.76,707.27,297.64,707.27,584,578.83,584,421,455.52,134.62,297.64,134.62ZM291.59,639.8A114.4,114.4,0,1,1,406,525.41,114.54,114.54,0,0,1,291.59,639.8ZM420,513.4c-6.08-65.53-61.32-117-128.41-117-71.13,0-129,57.88-129,129,0,68.27,53.36,124.18,120.55,128.58a161.94,161.94,0,0,1-24.07,2C169.59,656,96.8,583.17,96.8,493.69s72.79-162.26,162.26-162.26,162.26,72.8,162.26,162.26A162.14,162.14,0,0,1,420,513.4Zm-80.59,149c63-30.13,106.72-94.32,106.72-168.69,0-103.15-83.92-187.07-187.07-187.07S72,390.54,72,493.69a186.68,186.68,0,0,0,2.35,28.15A243.47,243.47,0,0,1,52.38,421c0-135.24,110-245.26,245.26-245.26S542.89,285.72,542.89,421C542.89,541.93,454.77,642.47,339.41,662.38Z" transform="translate(-11.32 -134.62)"/></svg>