<?xml version="1.0" encoding="utf-8"?>
<!-- Generator: Adobe Illustrator 24.3.0, SVG Export Plug-In . SVG Version: 6.00 Build 0)  -->
<svg version="1.1" id="Calque_1" xmlns="http://www.w3.org/2000/svg" xmlns:xlink="http://www.w3.org/1999/xlink" x="0px" y="0px"
	 viewBox="0 0 16.6 27" style="enable-background:new 0 0 16.6 27;" xml:space="preserve">
<style type="text/css">
	.st0{fill:#968E74;}
</style>
<g>
	<g>
		<g>
			<path class="st0" d="M5.2,17.1v-5.3c0-0.9,1-1.7,2.1-1.7h4.8c1.1,0,2.1,0.7,2.1,1.7v1.9c0,0.9-0.9,1.7-2.1,1.7H7.3L5.2,17.1z
				 M7.4,10.8c-0.7,0-1.3,0.5-1.3,1v3.7l0.9-0.7h5.2c0.7,0,1.3-0.5,1.3-1v-1.9c0-0.6-0.6-1-1.3-1L7.4,10.8L7.4,10.8z"/>
		</g>
		<g>
			<g>
				<path class="st0" d="M7.5,13.2c-0.3,0-0.6-0.2-0.6-0.5s0.3-0.5,0.6-0.5s0.6,0.2,0.6,0.5S7.8,13.2,7.5,13.2z M7.5,12.6
					c-0.1,0-0.2,0.1-0.2,0.2c0,0.2,0.5,0.2,0.5,0C7.7,12.7,7.6,12.6,7.5,12.6z"/>
			</g>
			<g>
				<g>
					<path class="st0" d="M9.7,13.2c-0.3,0-0.6-0.2-0.6-0.5s0.2-0.5,0.6-0.5s0.6,0.2,0.6,0.5S10.1,13.2,9.7,13.2z M9.7,12.6
						c-0.1,0-0.2,0.1-0.2,0.2c0,0.2,0.5,0.2,0.5,0C10,12.7,9.9,12.6,9.7,12.6z"/>
				</g>
			</g>
			<g>
				<g>
					<path class="st0" d="M12,13.2c-0.3,0-0.6-0.2-0.6-0.5s0.2-0.5,0.6-0.5s0.6,0.2,0.6,0.5S12.3,13.2,12,13.2z M12,12.6
						c-0.1,0-0.2,0.1-0.2,0.2c0,0.2,0.5,0.2,0.5,0C12.2,12.7,12.2,12.6,12,12.6z"/>
				</g>
			</g>
		</g>
	</g>
	<g>
		<path class="st0" d="M11.4,20.9H4.2c-1,0-1.8-0.6-1.8-1.4V7.6c0-0.8,0.8-1.4,1.8-1.4h7.2c1,0,1.8,0.6,1.8,1.4v2.3h-0.8V7.6
			c0-0.5-0.4-0.8-1-0.8H4.2c-0.6,0-1,0.3-1,0.8v11.8c0,0.5,0.4,0.8,1,0.8h7.2c0.6,0,1-0.3,1-0.8v-3.7h0.8v3.7
			C13.2,20.3,12.4,20.9,11.4,20.9z"/>
	</g>
	<g>
		<polygon class="st0" points="11.9,18.8 3.7,18.8 3.7,7.3 11.9,7.3 11.9,9.9 11.1,9.9 11.1,7.9 4.4,7.9 4.4,18.2 11.1,18.2 
			11.1,15.7 11.9,15.7 		"/>
	</g>
	<g>
		<path class="st0" d="M7.7,20.3c-0.6,0-1-0.4-1-0.9c0-0.5,0.5-0.8,1-0.8c0.6,0,1.1,0.4,1.1,0.8C8.8,19.9,8.3,20.3,7.7,20.3z
			 M7.7,19.3c-0.1,0-0.2,0.1-0.2,0.2c0,0.2,0.5,0.2,0.5,0C8,19.4,7.9,19.3,7.7,19.3z"/>
	</g>
</g>
</svg>
