<svg id="Calque_1" data-name="Calque 1" xmlns="http://www.w3.org/2000/svg" viewBox="0 0 10.37 10.37"><defs><style>.cls-1{fill:#a79f88;}.cls-2{fill:#fff;}</style></defs><title>twt</title><circle class="cls-1" cx="5.19" cy="5.19" r="5.19"/><path class="cls-2" d="M8.05,3.41a2.31,2.31,0,0,1-.57.16c.09,0,.23-.18.28-.25A1.14,1.14,0,0,0,8,3S8,3,8,3a0,0,0,0,0,0,0,2.81,2.81,0,0,1-.68.26h0s0-.05-.05-.06a1.15,1.15,0,0,0-.33-.21,1.27,1.27,0,0,0-.51-.08A1.2,1.2,0,0,0,5.82,3a1.26,1.26,0,0,0-.38.31,1.21,1.21,0,0,0-.23.47,1.11,1.11,0,0,0,0,.48s0,0,0,0A3.62,3.62,0,0,1,2.84,3.09s0,0-.06,0A1.17,1.17,0,0,0,3,4.49l.14.13a1.23,1.23,0,0,1-.45-.13s0,0,0,0a.62.62,0,0,0,0,.13,1.18,1.18,0,0,0,.73.95l.15.05a1.36,1.36,0,0,1-.44,0s0,0,0,0A1.23,1.23,0,0,0,4,6.48H4.1a1.53,1.53,0,0,1-.64.34A2.4,2.4,0,0,1,2.5,7H2.42s0,0,0,0l.2.11a3,3,0,0,0,.64.26A3.39,3.39,0,0,0,6.6,6.59a3.44,3.44,0,0,0,.92-2.54S7.57,4,7.59,4a2.28,2.28,0,0,0,.46-.47.13.13,0,0,0,0-.09h0S8.08,3.4,8.05,3.41Z" transform="translate(0 0)"/></svg>