<?xml version="1.0" encoding="utf-8"?>
<!-- Generator: Adobe Illustrator 24.3.0, SVG Export Plug-In . SVG Version: 6.00 Build 0)  -->
<svg version="1.1" id="Calque_1" xmlns="http://www.w3.org/2000/svg" xmlns:xlink="http://www.w3.org/1999/xlink" x="0px" y="0px"
	 viewBox="0 0 16.6 27" style="enable-background:new 0 0 16.6 27;" xml:space="preserve">
<style type="text/css">
	.st0{fill:#968E74;}
</style>
<path class="st0" d="M15.5,9.4c-1.1-1.9-2.9-3.3-5-3.8C8.3,5,6.1,5.3,4.2,6.4s-3.3,2.9-3.8,5s-0.3,4.4,0.8,6.3c1,1.7,2.6,3,4.4,3.7
	c0.9,0.3,1.8,0.5,2.7,0.5c1,0,2-0.2,2.9-0.5c0.2-0.1,0.2-0.3,0.2-0.4s-0.3-0.2-0.4-0.2c-2.5,1-5.2,0.5-7.3-1l0.3-1.5l0.1,0
	c0.5-0.2,0.8-0.7,0.6-1.3l-0.1-0.3c0-0.1,0-0.1,0-0.2c0.1-0.3,0.1-0.6-0.1-0.8C4.5,15.2,4.3,15,4,15l-0.7-0.1l-1.4-1.1
	c-0.1-0.1-0.2-0.1-0.3-0.1L0.7,14c0-0.3,0-0.6,0-0.9c0,0,0.1,0.1,0.1,0.1c0,0,0,0.1,0.1,0.1c0.1,0.1,0.1,0.1,0.3,0.1
	c0.1,0,0.3,0,0.6-0.1c0.3,0,0.5-0.1,0.5-0.1c0.1,0,0.2-0.1,0.2-0.2c0-0.1,0-0.2,0-0.3L2,12.1l0.6-0.4c0,0,0.1-0.1,0.1-0.1l0.9-1.5
	l0.4-0.4c0.4-0.4,0.5-1,0.3-1.4C4.1,7.9,3.9,7.7,3.6,7.5c0.3-0.2,0.6-0.4,0.9-0.6c1.2-0.7,2.5-1,3.7-1L7.7,6.6L5.5,7.4
	c-0.1,0-0.2,0.1-0.2,0.2L4.7,9c0,0.1,0,0.2,0,0.3l0.9,1.2c-0.1,0.1-0.2,0.3-0.4,0.5c-0.1,0.1-0.1,0.2-0.2,0.2c0,0-0.1,0.1-0.1,0.1
	c-0.2,0.2-0.4,0.4-0.5,0.7c-0.3,0.6-0.2,1.4,0.2,1.9c0.4,0.5,1,0.8,1.7,0.7c0.1,0,0.2,0,0.3-0.1c0.3-0.1,0.4-0.1,0.5,0
	c0,0,0,0,0,0.2c0,0.1,0,0.2,0,0.3c0,0.2,0.2,0.3,0.3,0.4c0,0.1,0.1,0.1,0.1,0.1c0.1,0.2,0.1,0.4,0,0.7c0,0,0,0.1,0,0.1
	c-0.1,0.5,0.1,0.9,0.2,1.3c0.1,0.1,0.1,0.2,0.1,0.4c0.3,0.9,0.5,1.1,0.7,1.1c0.1,0,0.2,0.1,0.3,0.1c0.5,0,1-0.4,1.2-0.7
	c0.1-0.2,0.2-0.3,0.2-0.5c0-0.1,0-0.1,0-0.1c0,0,0.1-0.1,0.1-0.1c0.1-0.1,0.2-0.2,0.3-0.4c0.1-0.2,0.1-0.2,0.2-0.3c0,0,0,0,0.1-0.1
	c0.4-0.5,0.3-0.8,0.2-1.2c-0.1-0.3,0.1-0.5,0.5-0.9c0.2-0.2,0.4-0.3,0.5-0.6c0.1-0.1,0.3-0.4,0.1-0.6c-0.1-0.3-0.4-0.3-0.7-0.4
	c-0.1,0-0.2,0-0.3-0.1c-0.2-0.1-0.3-0.4-0.4-0.7c0-0.1,0-0.1-0.1-0.2c0-0.1-0.1-0.2-0.1-0.3c-0.1-0.3-0.3-0.6-0.5-0.9
	C10,11.1,9.6,11,9.3,10.9c-0.1,0-0.2-0.1-0.3-0.1c-0.1,0-0.1,0-0.2,0c-0.2,0-0.3,0.1-0.3,0.1c0,0-0.1,0.1-0.1,0.2
	C8.2,11.1,8.1,11,8,10.9c0,0,0,0,0,0c0-0.1,0-0.2,0-0.3c-0.2-0.4-0.8-0.4-0.9-0.3c-0.1,0-0.2,0-0.2,0c-0.1,0-0.3,0-0.5,0l0,0
	c0.1-0.3,0.4-0.5,0.8-0.5h0.2c0.2,0,0.3-0.1,0.3-0.3c0-0.2-0.1-0.3-0.3-0.3H7.1c-0.5,0-1,0.3-1.2,0.7L5.4,9.1L5.9,8L8,7.2
	c0.1,0,0.1-0.1,0.1-0.1L9,6c2.4,0.2,4.6,1.6,5.9,3.8c0.3,0.6,0.6,1.2,0.8,1.8l-0.1,0.1c-0.2,0.2-0.3,0.4-0.3,0.6c0,0,0,0,0,0
	L15,11.7c0-0.1-0.1-0.2-0.1-0.2L14.5,11c-0.2-0.2-0.4-0.3-0.6-0.3h-0.5c-0.2,0-0.3,0.1-0.4,0.2c-0.1,0.2-0.1,0.3,0,0.5l0,0.1
	c-0.3,0.3-0.7,0.5-1.1,0.6l-0.7-1.3v-0.3c0-0.1,0-0.2-0.1-0.2l-0.6-0.6c0,0-0.1-0.1-0.1-0.1L9.9,9.5c-0.2-0.1-0.4,0-0.4,0.2
	c-0.1,0.2,0,0.4,0.2,0.4l0.5,0.2l0.5,0.4v0.2c0,0.1,0,0.1,0,0.1l0.8,1.6c0.1,0.1,0.2,0.2,0.4,0.2l0.2-0.1c0.6-0.2,1.1-0.5,1.5-1
	c0.1-0.1,0.1-0.3,0-0.4l0,0h0.2c0,0,0.1,0,0.1,0.1l0.4,0.5c0,0,0,0,0,0.1l0.4,1.2c0,0.1,0.1,0.2,0.2,0.2c0,0,0,0,0.1,0
	c0.1,0,0.2,0,0.2-0.1l0.2-0.2c0.1-0.1,0.2-0.3,0.3-0.5c0.3,2.6-0.7,5.3-2.8,6.9c-0.1,0.1-0.2,0.3-0.1,0.5c0.1,0.1,0.3,0.2,0.5,0.1
	c1.5-1.2,2.6-3,3-4.9C16.8,13.2,16.5,11.1,15.5,9.4z M1.6,14.4l1.3,1c0,0,0.1,0.1,0.1,0.1l0.8,0.2c0.1,0,0.2,0.1,0.2,0.2
	c0.1,0.1,0.1,0.2,0,0.3c-0.1,0.2-0.1,0.4,0,0.6L4.2,17c0.1,0.2,0,0.4-0.2,0.5l-0.3,0.1c-0.1,0-0.2,0.1-0.2,0.2l-0.3,1.3
	c-0.6-0.5-1.1-1.1-1.5-1.8c-0.5-0.9-0.8-1.8-0.9-2.7L1.6,14.4z M0.7,13C0.7,13,0.7,13.1,0.7,13C0.7,13.1,0.7,13,0.7,13z M3.6,8.5
	C3.7,8.7,3.7,9,3.5,9.2L3.1,9.7c0,0,0,0,0,0.1l-0.9,1.5l-0.8,0.5c-0.1,0.1-0.2,0.3-0.1,0.4l0.3,0.4c-0.2,0-0.3,0-0.4,0.1
	c0,0,0,0-0.1-0.1c-0.1-0.1-0.2-0.2-0.3-0.3c0.3-1.6,1-3.1,2.3-4.3C3.3,8.1,3.5,8.3,3.6,8.5z M6.8,10.9c0.1,0,0.2,0,0.3,0
	c0,0,0.1,0,0.1,0c0,0.1,0,0.1,0,0.2c0,0.1,0.1,0.2,0.2,0.2c0.1,0,0.1,0.1,0.2,0.1c0.3,0.2,0.5,0.4,0.8,0.4c0.2,0,0.4-0.1,0.4-0.2
	c0,0,0,0,0,0c0,0,0.1-0.1,0.1-0.1c0.1,0,0.1,0,0.2,0c0.2,0.1,0.5,0.1,0.6,0.2c0.1,0.1,0.2,0.4,0.3,0.7c0,0.1,0.1,0.2,0.1,0.4
	c0,0,0,0.1,0.1,0.1c0.1,0.3,0.3,0.7,0.7,0.9c0.2,0.1,0.4,0.1,0.5,0.2c0,0,0,0,0.1,0c-0.1,0.1-0.3,0.3-0.4,0.4
	c-0.4,0.4-0.9,0.8-0.7,1.6c0.1,0.3,0.1,0.4-0.1,0.6c0,0,0,0-0.1,0.1c-0.1,0.2-0.3,0.3-0.4,0.6c0,0.1-0.1,0.1-0.1,0.2
	c-0.1,0.1-0.1,0.1-0.2,0.2c-0.1,0.1-0.1,0.2-0.1,0.3c0,0.1,0,0.1-0.1,0.2c-0.1,0.1-0.2,0.3-0.4,0.4c-0.2,0.1-0.2,0.1-0.3,0.1
	c0,0-0.2-0.2-0.3-0.8c0-0.1-0.1-0.3-0.2-0.4C8.2,17.3,8,17,8.1,16.8c0,0,0,0,0-0.1c0.1-0.3,0.2-0.7,0-1.1c-0.1-0.1-0.2-0.2-0.2-0.3
	c-0.1-0.1-0.1-0.1-0.1-0.2c0,0,0-0.1,0-0.2c0-0.2,0-0.4-0.3-0.7c-0.4-0.3-0.8-0.2-1-0.2c-0.1,0-0.2,0-0.2,0
	c-0.5,0.1-0.9-0.1-1.1-0.5c-0.3-0.4-0.3-0.9-0.1-1.3c0.1-0.2,0.2-0.4,0.4-0.6c0,0,0.1-0.1,0.1-0.1c0.1-0.1,0.1-0.2,0.2-0.3
	C5.9,11.3,6,11.1,6.1,11C6.2,10.9,6.6,10.9,6.8,10.9z"/>
</svg>
