<svg id="Calque_1" data-name="Calque 1" xmlns="http://www.w3.org/2000/svg" viewBox="0 0 325.46 425.97"><defs><style>.cls-1{fill:#a79f88;}.cls-2{fill:#fff;}</style></defs><title>ytb</title><circle class="cls-1" cx="320.28" cy="420.79" r="5.19"/><path class="cls-2" d="M323.05,420a1.24,1.24,0,0,0-1.24-1.24h-3.19a1.25,1.25,0,0,0-1.24,1.24v1.49a1.25,1.25,0,0,0,1.24,1.24h3.19a1.24,1.24,0,0,0,1.24-1.24Zm-1.87.86-1.43.7c-.05,0-.24,0-.24-.07v-1.45c0-.07.19-.11.24-.07l1.37.74C321.18,420.77,321.24,420.85,321.18,420.89Z"/><circle class="cls-1" cx="5.19" cy="5.19" r="5.19"/><path class="cls-2" d="M8,4.43A1.23,1.23,0,0,0,6.72,3.19H3.53A1.24,1.24,0,0,0,2.29,4.43V5.91A1.25,1.25,0,0,0,3.53,7.16H6.72A1.24,1.24,0,0,0,8,5.91Zm-1.87.85L4.66,6s-.24,0-.24-.07V4.47c0-.07.19-.11.24-.08L6,5.14C6.09,5.17,6.15,5.25,6.09,5.28Z"/></svg>